HIERARCHY
ROOT Hips
{
	OFFSET 0.000000 0.000000 0.000000
	CHANNELS 6 Xposition Yposition Zposition Xrotation Yrotation Zrotation
	JOINT LeftUpLeg_virtual
	{
		OFFSET 0.000000 0.000000 0.000000
		CHANNELS 3 Xrotation Yrotation Zrotation
		JOINT LeftUpLeg
		{
			OFFSET 15.427100 -6.655098 0.678600
			CHANNELS 3 Xrotation Yrotation Zrotation
			JOINT LeftLeg
			{
				OFFSET 4.081073 -39.591068 13.024000
				CHANNELS 3 Xrotation Yrotation Zrotation
				JOINT LeftFoot
				{
					OFFSET -4.081074 -37.707932 -15.979700
					CHANNELS 3 Xrotation Yrotation Zrotation
					JOINT LeftToeBase
					{
						OFFSET 5.346399 -15.068900 20.645000
						CHANNELS 3 Xrotation Yrotation Zrotation
						JOINT LeftToe_End
						{
							OFFSET 2.754700 0.931300 11.300900
							CHANNELS 3 Xrotation Yrotation Zrotation
							End Site
							{
								OFFSET 0 0 0
							}
						}
					}
				}
			}
		}
	}
	JOINT RightUpLeg_virtual
	{
		OFFSET 0.000000 0.000000 0.000000
		CHANNELS 3 Xrotation Yrotation Zrotation
		JOINT RightUpLeg
		{
			OFFSET -15.569500 -6.655098 0.678600
			CHANNELS 3 Xrotation Yrotation Zrotation
			JOINT RightLeg
			{
				OFFSET -4.081825 -39.591045 13.023800
				CHANNELS 3 Xrotation Yrotation Zrotation
				JOINT RightFoot
				{
					OFFSET 4.081824 -37.707954 -15.979600
					CHANNELS 3 Xrotation Yrotation Zrotation
					JOINT RightToeBase
					{
						OFFSET -5.346400 -15.068900 20.645000
						CHANNELS 3 Xrotation Yrotation Zrotation
						JOINT RightToe_End
						{
							OFFSET -2.754700 0.931300 11.300900
							CHANNELS 3 Xrotation Yrotation Zrotation
							End Site
							{
								OFFSET 0 0 0
							}
						}
					}
				}
			}
		}
	}
	JOINT Spine_virtual
	{
		OFFSET 0.000000 0.000000 0.000000
		CHANNELS 3 Xrotation Yrotation Zrotation
		JOINT Spine
		{
			OFFSET -0.279200 12.230698 -2.892100
			CHANNELS 3 Xrotation Yrotation Zrotation
			JOINT Spine1
			{
				OFFSET -0.232667 10.192268 -1.242267
				CHANNELS 3 Xrotation Yrotation Zrotation
				JOINT Spine1_split
				{
					OFFSET -0.232667 10.192268 -1.242267
					CHANNELS 3 Xrotation Yrotation Zrotation
					JOINT Spine2
					{
						OFFSET -0.232667 10.192268 -1.242267
						CHANNELS 3 Xrotation Yrotation Zrotation
						JOINT Neck_virtual
						{
							OFFSET 0.000000 0.000000 0.000000
							CHANNELS 3 Xrotation Yrotation Zrotation
							JOINT Neck
							{
								OFFSET -0.418800 17.814194 8.416900
								CHANNELS 3 Xrotation Yrotation Zrotation
								JOINT Head
								{
									OFFSET 0.000000 7.031097 3.806800
									CHANNELS 3 Xrotation Yrotation Zrotation
									JOINT HeadTop_End
									{
										OFFSET 0.000000 24.646606 12.978600
										CHANNELS 3 Xrotation Yrotation Zrotation
										End Site
										{
											OFFSET 0 0 0
										}
									}
								}
							}
						}
						JOINT LeftShoulder_virtual
						{
							OFFSET 0.000000 0.000000 0.000000
							CHANNELS 3 Xrotation Yrotation Zrotation
							JOINT LeftShoulder
							{
								OFFSET 8.476499 7.247704 -3.868750
								CHANNELS 3 Xrotation Yrotation Zrotation
								JOINT LeftShoulder_split
								{
									OFFSET 8.476499 7.247704 -3.868750
									CHANNELS 3 Xrotation Yrotation Zrotation
									JOINT LeftArm
									{
										OFFSET 9.308998 -2.777710 0.208600
										CHANNELS 3 Xrotation Yrotation Zrotation
										JOINT LeftForeArm
										{
											OFFSET 29.972298 0.000000 0.000000
											CHANNELS 3 Xrotation Yrotation Zrotation
											JOINT LeftHand
											{
												OFFSET 26.026505 0.000000 0.000000
												CHANNELS 3 Xrotation Yrotation Zrotation
												End Site
												{
													OFFSET 0 0 0
												}
											}
										}
									}
								}
							}
						}
						JOINT RightShoulder_virtual
						{
							OFFSET 0.000000 0.000000 0.000000
							CHANNELS 3 Xrotation Yrotation Zrotation
							JOINT RightShoulder
							{
								OFFSET -7.570500 7.247704 -3.868750
								CHANNELS 3 Xrotation Yrotation Zrotation
								JOINT RightShoulder_split
								{
									OFFSET -7.570500 7.247704 -3.868750
									CHANNELS 3 Xrotation Yrotation Zrotation
									JOINT RightArm
									{
										OFFSET -9.308998 -2.777710 0.208500
										CHANNELS 3 Xrotation Yrotation Zrotation
										JOINT RightForeArm
										{
											OFFSET -29.972300 0.000000 0.000000
											CHANNELS 3 Xrotation Yrotation Zrotation
											JOINT RightHand
											{
												OFFSET -26.026505 0.000000 0.000000
												CHANNELS 3 Xrotation Yrotation Zrotation
												End Site
												{
													OFFSET 0 0 0
												}
											}
										}
									}
								}
							}
						}
					}
				}
			}
		}
	}
}
MOTION
Frames: 8
Frame Time: 0.03333333
0.936400 88.276024 -2.629509 0.000000 0.000000 0.000000 43.016729 -21.861135 6.779803 -79.328611 7.328145 30.324896 75.575005 -7.908526 -8.182031 7.209746 -14.744082 1.435713 2.458099 -2.477898 1.597329 0.000000 0.000000 0.000000 40.077549 -24.925981 8.690128 -41.275007 6.788863 9.187721 48.184577 -1.063840 -8.302080 -14.281586 -7.307775 -12.650702 -34.464834 6.608812 -4.304614 0.000000 0.000000 0.000000 44.090807 -16.025243 6.678780 18.247390 2.114532 -10.551877 -7.733193 1.777346 1.498001 2.137754 -0.286457 0.743316 0.000000 0.000000 0.000000 -9.303355 -1.116562 3.994145 -0.557651 7.642005 -1.899513 -18.756464 12.118908 -7.974186 0.000000 0.000000 0.000000 -9.462386 -0.681737 3.150294 1.959091 -4.208753 11.007368 -1.438264 -8.364583 -4.983473 -66.556744 -3.384979 -22.717851 172.446116 -78.710813 172.689626 0.000000 0.000000 0.000000 -9.751194 -1.379905 4.564729 5.287474 15.247101 0.280647 -4.141899 1.771649 2.511272 -16.395656 0.352534 46.881397 1.039550 67.410525 -4.666556 0.000000 0.000000 0.000000 
-0.630016 88.090599 9.708183 0.000000 0.000000 0.000000 39.805154 -22.843424 6.424764 -80.719456 8.906850 30.718824 65.992687 -5.562769 -9.188415 6.451108 -13.824268 1.211918 1.416387 -2.377526 1.646199 0.000000 0.000000 0.000000 38.917113 -29.241379 10.752307 -37.663531 7.968145 6.149142 48.725415 -0.456185 -7.358949 -8.328732 -5.498326 -7.263046 -39.713083 6.559957 -3.998119 0.000000 0.000000 0.000000 43.304451 -16.544783 6.707553 18.061768 3.521162 -10.888116 -7.959633 2.207399 1.536110 0.187645 1.107437 -0.011439 0.000000 0.000000 0.000000 -8.681991 -0.756747 4.143203 -0.699587 7.497253 -1.628622 -18.505221 11.428642 -7.553067 0.000000 0.000000 0.000000 -9.170985 -0.144308 3.451717 1.675167 -2.642441 9.892404 0.604843 -7.124996 -4.372848 -63.204781 -0.595083 -22.325745 162.160726 -79.022010 162.187145 0.000000 0.000000 0.000000 -9.907745 -0.946469 4.289658 5.216465 17.020726 -0.000227 -5.140206 1.911631 0.060817 -19.556281 7.325249 45.695717 5.984558 73.703349 -10.012237 0.000000 0.000000 0.000000 
-2.005319 88.488693 24.515530 0.000000 0.000000 0.000000 36.373397 -22.622456 6.866788 -77.640447 10.275966 27.552558 55.147644 -2.149215 -8.624222 6.796882 -11.633981 1.219656 0.452578 -2.345977 1.577664 0.000000 0.000000 0.000000 37.237519 -30.307407 12.088627 -28.340541 10.341904 1.442587 45.633095 0.405761 -7.047729 1.941403 -2.222448 2.345907 -41.583199 6.048653 -3.148037 0.000000 0.000000 0.000000 40.139294 -16.013582 6.389856 19.201262 6.081625 -12.086969 -7.602345 2.955990 1.711571 -0.791310 0.589341 0.927859 0.000000 0.000000 0.000000 -7.622568 0.070642 4.377825 -2.141727 6.305594 -0.901035 -18.444566 9.257491 -7.536386 0.000000 0.000000 0.000000 -8.528804 0.842899 3.738379 1.279170 -0.639807 6.918287 1.916014 -5.523902 -2.244418 -57.493466 4.422492 -22.408343 142.283017 -76.414189 142.328793 0.000000 0.000000 0.000000 -9.324237 0.039678 3.968360 5.207490 19.417246 0.216861 -4.965868 0.818202 -2.236316 -22.335733 14.168304 42.903423 18.496304 77.736596 -23.112807 0.000000 0.000000 0.000000 
-2.632877 88.704002 39.012791 0.000000 0.000000 0.000000 32.673409 -20.710641 7.707660 -70.726097 10.982626 21.307967 45.812490 1.150207 -6.353941 6.508448 -8.609996 1.919990 1.710208 -2.348726 1.216337 0.000000 0.000000 0.000000 35.350826 -27.577196 12.170349 -16.052930 12.177442 -3.943068 41.020275 0.620733 -7.451465 11.414213 1.997508 11.335538 -38.413503 5.212694 -1.935151 0.000000 0.000000 0.000000 34.757258 -14.248844 5.852776 21.920363 8.957638 -13.748062 -6.744186 3.665275 1.944756 1.010309 -1.603660 3.124934 0.000000 0.000000 0.000000 -6.457166 0.941838 4.636028 -4.809970 4.515395 0.150671 -18.478057 6.312506 -7.874925 0.000000 0.000000 0.000000 -7.824470 1.761764 3.809249 1.027662 1.237606 2.563790 3.541186 -3.932284 0.092962 -49.805545 10.504793 -24.487937 130.918689 -70.031460 131.049993 0.000000 0.000000 0.000000 -8.169827 1.052270 3.599130 4.976925 21.643034 1.689477 -4.440619 -0.859632 -3.988567 -23.071501 17.705944 39.022059 33.514724 78.673923 -38.871727 0.000000 0.000000 0.000000 
-2.766019 88.095604 52.569847 0.000000 0.000000 0.000000 28.159063 -16.956032 8.433557 -61.858940 10.887194 13.207294 38.861847 3.097938 -2.806929 4.138391 -6.114951 2.335144 4.066815 -2.255157 0.609389 0.000000 0.000000 0.000000 32.664092 -21.610288 10.960366 -6.112461 12.459662 -8.886804 40.485916 -0.221424 -7.697844 17.407478 4.688839 15.913337 -28.184767 4.260226 -0.099460 0.000000 0.000000 0.000000 28.247605 -10.692977 5.454395 26.020970 11.162825 -15.213973 -5.567497 3.958247 2.002820 2.576447 -2.919365 4.340887 0.000000 0.000000 0.000000 -5.423862 1.293447 4.745545 -8.409144 2.462583 1.312427 -18.386664 3.058357 -8.364581 0.000000 0.000000 0.000000 -7.208104 2.077956 3.511131 0.946862 2.094871 -2.469072 6.265038 -2.058396 2.055622 -40.162721 15.985948 -29.409965 128.593665 -62.099902 128.756238 0.000000 0.000000 0.000000 -6.794666 1.491089 3.154612 4.351781 22.636791 4.790813 -4.948990 -2.249219 -4.880302 -20.978171 16.318905 35.334495 43.227478 78.287615 -49.365428 0.000000 0.000000 0.000000 
-2.376039 86.344322 64.484528 0.000000 0.000000 0.000000 23.092280 -13.221018 9.148162 -51.878453 10.070929 4.715500 34.779050 3.144944 1.090225 -0.671270 -5.075311 2.185939 3.550789 -2.107457 0.157053 0.000000 0.000000 0.000000 28.813293 -13.438805 9.233614 -3.478980 11.640234 -12.875225 47.277890 -2.220336 -7.338278 19.898873 4.567983 15.959762 -14.143922 3.596601 2.379999 0.000000 0.000000 0.000000 21.444864 -6.400595 6.193487 30.851186 12.078702 -15.950476 -4.323070 3.438777 1.749033 3.029673 -4.048226 3.656959 0.000000 0.000000 0.000000 -4.736178 0.791901 4.567520 -12.416808 0.497279 2.347768 -17.476967 0.600529 -8.435500 0.000000 0.000000 0.000000 -6.677747 1.486422 2.820688 0.877374 1.584597 -7.173014 9.613240 -0.063587 3.040625 -30.546966 18.547092 -36.488602 131.039051 -54.744724 131.037753 0.000000 0.000000 0.000000 -5.656154 0.968196 2.672103 3.439172 21.397338 9.017771 -6.043840 -3.278914 -4.643121 -15.895066 10.194862 33.298743 46.991811 78.397628 -53.711720 0.000000 0.000000 0.000000 
-1.651516 83.655891 75.701569 0.000000 0.000000 0.000000 17.982785 -9.309959 9.732903 -42.403515 8.873689 -2.791470 34.124424 1.634937 4.647583 -6.508441 -4.917842 -0.682986 -0.311538 -1.784597 0.081610 0.000000 0.000000 0.000000 24.464395 -4.295879 7.843686 -8.648010 10.567146 -15.817253 60.103493 -4.548234 -5.770549 18.968144 3.076733 14.141836 -4.915186 3.034034 4.476578 0.000000 0.000000 0.000000 15.268369 -2.663841 7.391135 35.490489 11.636389 -15.315343 -3.416251 1.950552 1.309481 2.803240 -4.045262 1.778641 0.000000 0.000000 0.000000 -4.290531 -0.631674 4.034877 -16.514501 -1.206216 3.142389 -15.357651 -1.062797 -7.785050 0.000000 0.000000 0.000000 -6.106699 -0.001418 1.989055 0.704925 -0.074575 -10.663447 11.633714 1.981406 1.991583 -22.729328 17.662130 -43.376042 135.925587 -49.123509 135.543205 0.000000 0.000000 0.000000 -4.882372 -0.618912 2.128691 2.336104 17.821903 13.443544 -7.224624 -3.453260 -4.059837 -8.358923 1.460299 34.122758 46.226287 79.505082 -53.375821 0.000000 0.000000 0.000000 
-0.878442 81.010605 87.167473 0.000000 0.000000 0.000000 13.503244 -5.499513 10.030345 -32.381971 8.407402 -8.723335 34.926650 1.198536 7.379255 -13.964570 -4.250864 -3.788801 -4.715426 -1.502080 -0.377381 0.000000 0.000000 0.000000 19.670491 3.593249 7.214243 -20.143903 9.857961 -17.101192 74.797736 -6.095530 -3.523170 16.166192 1.779842 12.114093 -5.487560 1.921688 5.433975 0.000000 0.000000 0.000000 11.223141 -0.329764 8.432291 38.764759 10.019239 -12.892131 -3.102352 -0.357107 0.719910 1.601776 -3.190497 0.332992 0.000000 0.000000 0.000000 -4.034151 -2.809862 3.169297 -19.925516 -2.529824 3.568607 -12.021329 -2.381916 -6.329489 0.000000 0.000000 0.000000 -5.481422 -2.154648 1.243352 0.370065 -2.256383 -12.547048 12.317714 3.567667 0.080729 -18.413423 14.323643 -47.675356 142.087633 -45.854004 141.159561 0.000000 0.000000 0.000000 -4.272776 -2.925027 1.568036 1.446656 12.165772 16.673057 -8.101368 -1.963813 -3.552221 1.648690 -6.471055 37.137419 38.646945 81.431387 -46.036510 0.000000 0.000000 0.000000 
